# xmcd
#
# Track frame offsets:
# 150
# 15990
# 34157
# 49030
# 62610
# 82150
# 101717
# 117992
# 131237
# 148755
# 162877
# 179685
# 198242
# 219632
#
# Disc length: 3118 seconds
#
#
# Revision: 0
# Processed by: cddbd v1.5.1PL2 Copyright (c) Steve Scherf et al.
# Submitted via: FreeRIP 2.944 
#
DISCID=cd0c2c0e
DTITLE=Dan Crump - Truth Is
DYEAR=2005
DGENRE=Texas Country
TTITLE0=Forty Years
TTITLE1=Walk On
TTITLE2=Truth Is
TTITLE3=Don't You Know
TTITLE4=Dream On
TTITLE5=I'm Done
TTITLE6=She Like Shoes
TTITLE7=Love You Baby
TTITLE8=Night After Night
TTITLE9=Met An Old Friend
TTITLE10=London's Calling Home
TTITLE11=Time In The Past
TTITLE12=Built For Speed
TTITLE13=Funny Thing Like Tears
EXTD=www.dancrump.com
EXTT0=
EXTT1=
EXTT2=
EXTT3=
EXTT4=
EXTT5=
EXTT6=
EXTT7=
EXTT8=
EXTT9=
EXTT10=
EXTT11=
EXTT12=
EXTT13=
PLAYORDER=
